<svg width="29" height="28" viewBox="0 0 29 28" fill="none" xmlns="http://www.w3.org/2000/svg">
<path d="M25.5 21C25.5 21.5304 25.2893 22.0391 24.9142 22.4142C24.5391 22.7893 24.0304 23 23.5 23H5.5C4.96957 23 4.46086 22.7893 4.08579 22.4142C3.71071 22.0391 3.5 21.5304 3.5 21V10C3.5 9.46957 3.71071 8.96086 4.08579 8.58579C4.46086 8.21071 4.96957 8 5.5 8H9.5L11.5 5H17.5L19.5 8H23.5C24.0304 8 24.5391 8.21071 24.9142 8.58579C25.2893 8.96086 25.5 9.46957 25.5 10V21Z" stroke="#FEFEFE" stroke-width="2" stroke-linecap="round" stroke-linejoin="round"/>
<path d="M14.5 19C16.7091 19 18.5 17.2091 18.5 15C18.5 12.7909 16.7091 11 14.5 11C12.2909 11 10.5 12.7909 10.5 15C10.5 17.2091 12.2909 19 14.5 19Z" stroke="#FEFEFE" stroke-width="2" stroke-linecap="round" stroke-linejoin="round"/>
</svg>
