<svg width="28" height="29" viewBox="0 0 28 29" fill="none" xmlns="http://www.w3.org/2000/svg">
<path d="M16.0183 25C15.8132 25.3536 15.5188 25.6471 15.1646 25.8512C14.8104 26.0552 14.4088 26.1626 14 26.1626C13.5912 26.1626 13.1896 26.0552 12.8354 25.8512C12.4812 25.6471 12.1868 25.3536 11.9817 25M21 9.83337C21 7.97686 20.2625 6.19638 18.9497 4.88363C17.637 3.57087 15.8565 2.83337 14 2.83337C12.1435 2.83337 10.363 3.57087 9.05025 4.88363C7.7375 6.19638 7 7.97686 7 9.83337C7 18 3.5 20.3334 3.5 20.3334H24.5C24.5 20.3334 21 18 21 9.83337Z" stroke="#5D514D" stroke-width="2.2" stroke-linecap="round" stroke-linejoin="round"/>
</svg>
