<svg width="28" height="29" viewBox="0 0 28 29" fill="none" xmlns="http://www.w3.org/2000/svg">
<g clip-path="url(#clip0_221_8969)">
<path d="M14.0003 18C15.9333 18 17.5003 16.433 17.5003 14.5C17.5003 12.567 15.9333 11 14.0003 11C12.0673 11 10.5003 12.567 10.5003 14.5C10.5003 16.433 12.0673 18 14.0003 18Z" stroke="#5D514D" stroke-width="2.2" stroke-linecap="round" stroke-linejoin="round"/>
<path d="M22.6337 18C22.4784 18.3518 22.432 18.7422 22.5007 19.1206C22.5693 19.4991 22.7497 19.8483 23.0187 20.1233L23.0887 20.1933C23.3056 20.41 23.4777 20.6673 23.5951 20.9506C23.7126 21.2339 23.773 21.5375 23.773 21.8441C23.773 22.1508 23.7126 22.4544 23.5951 22.7377C23.4777 23.0209 23.3056 23.2783 23.0887 23.495C22.872 23.7119 22.6146 23.884 22.3314 24.0014C22.0481 24.1189 21.7445 24.1793 21.4378 24.1793C21.1312 24.1793 20.8276 24.1189 20.5443 24.0014C20.261 23.884 20.0037 23.7119 19.787 23.495L19.717 23.425C19.442 23.156 19.0928 22.9756 18.7143 22.907C18.3359 22.8383 17.9455 22.8847 17.5937 23.04C17.2486 23.1878 16.9543 23.4334 16.747 23.7464C16.5397 24.0594 16.4285 24.4262 16.427 24.8016V25C16.427 25.6188 16.1812 26.2123 15.7436 26.6499C15.306 27.0875 14.7125 27.3333 14.0937 27.3333C13.4748 27.3333 12.8813 27.0875 12.4437 26.6499C12.0062 26.2123 11.7603 25.6188 11.7603 25V24.895C11.7513 24.5088 11.6263 24.1343 11.4016 23.8201C11.1769 23.5059 10.8629 23.2666 10.5003 23.1333C10.1484 22.978 9.7581 22.9317 9.37964 23.0003C9.00118 23.0689 8.65195 23.2493 8.37699 23.5183L8.30699 23.5883C8.09029 23.8052 7.83295 23.9773 7.54969 24.0948C7.26642 24.2122 6.9628 24.2726 6.65616 24.2726C6.34952 24.2726 6.04589 24.2122 5.76263 24.0948C5.47937 23.9773 5.22203 23.8052 5.00533 23.5883C4.78838 23.3716 4.61628 23.1142 4.49885 22.831C4.38143 22.5477 4.32099 22.2441 4.32099 21.9375C4.32099 21.6308 4.38143 21.3272 4.49885 21.0439C4.61628 20.7607 4.78838 20.5033 5.00533 20.2866L5.07533 20.2166C5.34429 19.9417 5.52471 19.5924 5.59333 19.214C5.66195 18.8355 5.61563 18.4452 5.46033 18.0933C5.31244 17.7482 5.06687 17.4539 4.75387 17.2467C4.44086 17.0394 4.07408 16.9281 3.69866 16.9266H3.50033C2.88149 16.9266 2.28799 16.6808 1.85041 16.2432C1.41282 15.8056 1.16699 15.2121 1.16699 14.5933C1.16699 13.9745 1.41282 13.381 1.85041 12.9434C2.28799 12.5058 2.88149 12.26 3.50033 12.26H3.60533C3.99149 12.2509 4.366 12.1259 4.68017 11.9012C4.99435 11.6765 5.23366 11.3625 5.36699 11C5.52229 10.6481 5.56862 10.2577 5.5 9.87927C5.43138 9.50081 5.25095 9.15158 4.98199 8.87663L4.91199 8.80663C4.69505 8.58992 4.52294 8.33258 4.40552 8.04932C4.2881 7.76606 4.22766 7.46243 4.22766 7.15579C4.22766 6.84916 4.2881 6.54553 4.40552 6.26227C4.52294 5.979 4.69505 5.72166 4.91199 5.50496C5.1287 5.28801 5.38604 5.11591 5.6693 4.99849C5.95256 4.88106 6.25619 4.82062 6.56283 4.82062C6.86946 4.82062 7.17309 4.88106 7.45635 4.99849C7.73962 5.11591 7.99695 5.28801 8.21366 5.50496L8.28366 5.57496C8.55862 5.84392 8.90784 6.02434 9.28631 6.09296C9.66477 6.16159 10.0551 6.11526 10.407 5.95996H10.5003C10.8454 5.81207 11.1397 5.56651 11.347 5.2535C11.5543 4.9405 11.6655 4.57371 11.667 4.19829V3.99996C11.667 3.38112 11.9128 2.78763 12.3504 2.35004C12.788 1.91246 13.3815 1.66663 14.0003 1.66663C14.6192 1.66663 15.2127 1.91246 15.6502 2.35004C16.0878 2.78763 16.3337 3.38112 16.3337 3.99996V4.10496C16.3352 4.48038 16.4464 4.84716 16.6537 5.16017C16.861 5.47317 17.1553 5.71874 17.5003 5.86663C17.8522 6.02193 18.2426 6.06825 18.621 5.99963C18.9995 5.93101 19.3487 5.75059 19.6237 5.48163L19.6937 5.41163C19.9104 5.19468 20.1677 5.02258 20.451 4.90515C20.7342 4.78773 21.0379 4.72729 21.3445 4.72729C21.6511 4.72729 21.9548 4.78773 22.238 4.90515C22.5213 5.02258 22.7786 5.19468 22.9953 5.41163C23.2123 5.62833 23.3844 5.88567 23.5018 6.16893C23.6192 6.45219 23.6797 6.75582 23.6797 7.06246C23.6797 7.3691 23.6192 7.67272 23.5018 7.95599C23.3844 8.23925 23.2123 8.49659 22.9953 8.71329L22.9253 8.78329C22.6564 9.05825 22.4759 9.40748 22.4073 9.78594C22.3387 10.1644 22.385 10.5547 22.5403 10.9066V11C22.6882 11.345 22.9338 11.6393 23.2468 11.8466C23.5598 12.0539 23.9266 12.1651 24.302 12.1666H24.5003C25.1192 12.1666 25.7127 12.4125 26.1502 12.85C26.5878 13.2876 26.8337 13.8811 26.8337 14.5C26.8337 15.1188 26.5878 15.7123 26.1502 16.1499C25.7127 16.5875 25.1192 16.8333 24.5003 16.8333H24.3953C24.0199 16.8348 23.6531 16.946 23.3401 17.1533C23.0271 17.3606 22.7815 17.6549 22.6337 18Z" stroke="#5D514D" stroke-width="2.2" stroke-linecap="round" stroke-linejoin="round"/>
</g>
<defs>
<clipPath id="clip0_221_8969">
<rect width="28" height="28" fill="white" transform="translate(0 0.5)"/>
</clipPath>
</defs>
</svg>
